<svg id="Capa_2" height="512" viewBox="0 0 425.2 425.2" width="512" xmlns="http://www.w3.org/2000/svg"><g><path d="m296.519 7.823c-2.794-4.84-7.958-7.822-13.548-7.822h-140.741c-5.589 0-10.753 2.982-13.548 7.822l-70.37 121.881c-2.051 3.553-2.625 7.77-1.597 11.74l70.37 272.027c1.786 6.906 8.014 11.727 15.145 11.727h140.741c7.13 0 13.359-4.82 15.145-11.727l70.368-272.027c1.027-3.971.454-8.188-1.597-11.74zm-13.548 401.731h-140.741l-70.37-272.027 70.37-121.881h140.741l70.368 121.881z"/><path d="m251.563 142.421h-9.102v-6.994c0-8.641-7.004-15.643-15.644-15.643h-28.432c-8.64 0-15.644 7.002-15.644 15.643v6.994h-9.102c-8.64 0-15.644 7.004-15.644 15.645v28.43c0 8.643 7.003 15.645 15.644 15.645h9.102v27.008c0 8.641 7.004 15.643 15.644 15.643h28.432c8.64 0 15.644-7.002 15.644-15.643v-27.009h9.102c8.64 0 15.644-7.002 15.644-15.645v-28.43c0-8.64-7.004-15.644-15.644-15.644zm0 44.074h-24.746v42.652h-28.432v-9.186-33.467h-24.746v-28.43h24.746v-17.752-4.887h28.432v22.639h24.746z"/><path d="m267.61 26.608h-110.018c-5.589 0-10.754 2.982-13.548 7.822l-57.245 99.152c-2.051 3.551-2.625 7.768-1.597 11.738l62.483 241.543c1.786 6.906 8.015 11.727 15.145 11.727h99.542c7.13 0 13.359-4.82 15.145-11.727l62.483-241.542c1.027-3.971.454-8.188-1.597-11.738l-57.245-99.152c-2.794-4.84-7.959-7.823-13.548-7.823zm-5.238 356.34h-99.542l-62.483-241.545 57.245-99.15h86.176l11.435 25.68-8.011 12.807c-1.496 2.391-1.593 5.373-.256 7.855l10.216 18.975c2.048 3.805 6.791 5.227 10.595 3.18 3.803-2.047 5.227-6.791 3.179-10.596l-8.061-14.973 7.807-12.48c1.374-2.195 1.567-4.963.515-7.328l-10.293-23.119h6.718l57.245 99.15z"/></g></svg>